<mxfile host="app.diagrams.net" modified="2023-07-20T13:29:14.945Z" agent="Mozilla/5.0 (Macintosh; Intel Mac OS X 10_15_7) AppleWebKit/537.36 (KHTML, like Gecko) Chrome/114.0.0.0 Safari/537.36" version="21.5.2" etag="eJsIi4nWGcf-bkAHY-kW" type="github">
  <diagram name="페이지-1" id="U2iBcGEmdtTtnsgGo7Fw">
    <mxGraphModel>
      <root>
        <mxCell id="0" />
        <mxCell id="1" parent="0" />
      </root>
    </mxGraphModel>
  </diagram>
</mxfile>
